<svg width="960" height="260" viewBox="0 0 960 260" fill="none" xmlns="http://www.w3.org/2000/svg" role="img" aria-labelledby="title desc">
  <title id="title">OMX Prompts</title>
  <desc id="desc">A local README hero graphic for an autonomous Codex and OMX prompt library.</desc>
  <rect width="960" height="260" rx="22" fill="#0B0F19"/>
  <rect x="1" y="1" width="958" height="258" rx="21" stroke="#1E293B" stroke-width="2"/>

  <g opacity="0.55">
    <path d="M78 204 C175 148 241 228 340 170 C441 111 514 185 613 131 C719 73 780 117 884 65" stroke="#1E293B" stroke-width="2"/>
    <path d="M94 62 H866" stroke="#111827" stroke-width="1"/>
    <path d="M94 103 H866" stroke="#111827" stroke-width="1"/>
    <path d="M94 144 H866" stroke="#111827" stroke-width="1"/>
    <path d="M94 185 H866" stroke="#111827" stroke-width="1"/>
  </g>

  <g>
    <rect x="58" y="52" width="304" height="156" rx="16" fill="#111827" stroke="#243244" stroke-width="1.5"/>
    <circle cx="82" cy="76" r="6" fill="#EF4444"/>
    <circle cx="102" cy="76" r="6" fill="#F59E0B"/>
    <circle cx="122" cy="76" r="6" fill="#22C55E"/>
    <text x="82" y="116" font-family="SFMono-Regular, Menlo, Consolas, monospace" font-size="18" fill="#93C5FD">$ ultragoal</text>
    <text x="82" y="146" font-family="SFMono-Regular, Menlo, Consolas, monospace" font-size="18" fill="#CBD5E1">plan -> build -> test</text>
    <text x="82" y="176" font-family="SFMono-Regular, Menlo, Consolas, monospace" font-size="18" fill="#CBD5E1">qa -> fix -> prove</text>
  </g>

  <g>
    <text x="402" y="86" font-family="Inter, ui-sans-serif, system-ui, -apple-system, BlinkMacSystemFont, Segoe UI, sans-serif" font-size="44" font-weight="750" fill="#F8FAFC">OMX Prompts</text>
    <text x="404" y="122" font-family="Inter, ui-sans-serif, system-ui, -apple-system, BlinkMacSystemFont, Segoe UI, sans-serif" font-size="18" fill="#94A3B8">Autonomous product delivery prompts for Codex + oh-my-codex</text>
  </g>

  <g font-family="Inter, ui-sans-serif, system-ui, -apple-system, BlinkMacSystemFont, Segoe UI, sans-serif" font-size="14" font-weight="650">
    <rect x="404" y="150" width="92" height="34" rx="17" fill="#0F766E"/>
    <text x="426" y="172" fill="#ECFEFF">docs</text>

    <path d="M504 167 H536" stroke="#334155" stroke-width="2"/>
    <path d="M531 161 L538 167 L531 173" stroke="#334155" stroke-width="2" stroke-linecap="round" stroke-linejoin="round"/>

    <rect x="548" y="150" width="116" height="34" rx="17" fill="#2563EB"/>
    <text x="577" y="172" fill="#EFF6FF">ultragoal</text>

    <path d="M672 167 H704" stroke="#334155" stroke-width="2"/>
    <path d="M699 161 L706 167 L699 173" stroke="#334155" stroke-width="2" stroke-linecap="round" stroke-linejoin="round"/>

    <rect x="716" y="150" width="86" height="34" rx="17" fill="#7C3AED"/>
    <text x="743" y="172" fill="#F5F3FF">team</text>

    <path d="M810 167 H842" stroke="#334155" stroke-width="2"/>
    <path d="M837 161 L844 167 L837 173" stroke="#334155" stroke-width="2" stroke-linecap="round" stroke-linejoin="round"/>

    <rect x="854" y="150" width="74" height="34" rx="17" fill="#16A34A"/>
    <text x="875" y="172" fill="#F0FDF4">verify</text>
  </g>

  <g>
    <rect x="404" y="203" width="111" height="28" rx="14" fill="#111827" stroke="#243244"/>
    <text x="422" y="222" font-family="Inter, ui-sans-serif, system-ui" font-size="13" fill="#CBD5E1">Ralph loops</text>
    <rect x="527" y="203" width="89" height="28" rx="14" fill="#111827" stroke="#243244"/>
    <text x="546" y="222" font-family="Inter, ui-sans-serif, system-ui" font-size="13" fill="#CBD5E1">UltraQA</text>
    <rect x="628" y="203" width="118" height="28" rx="14" fill="#111827" stroke="#243244"/>
    <text x="646" y="222" font-family="Inter, ui-sans-serif, system-ui" font-size="13" fill="#CBD5E1">Final report</text>
  </g>
</svg>
