<svg width="1280" height="640" viewBox="0 0 1280 640" fill="none" xmlns="http://www.w3.org/2000/svg" role="img" aria-labelledby="title desc">
  <title id="title">OMX Prompts social preview</title>
  <desc id="desc">Social preview image for the OMX Prompts GitHub repository.</desc>
  <rect width="1280" height="640" fill="#0B0F19"/>
  <rect x="44" y="44" width="1192" height="552" rx="36" fill="#111827" stroke="#243244" stroke-width="2"/>

  <text x="104" y="168" font-family="Inter, ui-sans-serif, system-ui, -apple-system, BlinkMacSystemFont, Segoe UI, sans-serif" font-size="76" font-weight="800" fill="#F8FAFC">OMX Prompts</text>
  <text x="108" y="226" font-family="Inter, ui-sans-serif, system-ui, -apple-system, BlinkMacSystemFont, Segoe UI, sans-serif" font-size="30" fill="#94A3B8">Autonomous product delivery prompts for Codex + oh-my-codex</text>

  <g font-family="Inter, ui-sans-serif, system-ui, -apple-system, BlinkMacSystemFont, Segoe UI, sans-serif" font-size="24" font-weight="700">
    <rect x="108" y="302" width="136" height="56" rx="28" fill="#0F766E"/>
    <text x="147" y="338" fill="#ECFEFF">docs</text>
    <path d="M264 330 H318" stroke="#475569" stroke-width="4"/>
    <path d="M310 318 L324 330 L310 342" stroke="#475569" stroke-width="4" stroke-linecap="round" stroke-linejoin="round"/>

    <rect x="344" y="302" width="188" height="56" rx="28" fill="#2563EB"/>
    <text x="385" y="338" fill="#EFF6FF">ultragoal</text>
    <path d="M552 330 H606" stroke="#475569" stroke-width="4"/>
    <path d="M598 318 L612 330 L598 342" stroke="#475569" stroke-width="4" stroke-linecap="round" stroke-linejoin="round"/>

    <rect x="632" y="302" width="138" height="56" rx="28" fill="#7C3AED"/>
    <text x="672" y="338" fill="#F5F3FF">team</text>
    <path d="M790 330 H844" stroke="#475569" stroke-width="4"/>
    <path d="M836 318 L850 330 L836 342" stroke="#475569" stroke-width="4" stroke-linecap="round" stroke-linejoin="round"/>

    <rect x="870" y="302" width="154" height="56" rx="28" fill="#16A34A"/>
    <text x="910" y="338" fill="#F0FDF4">verify</text>
  </g>

  <g font-family="Inter, ui-sans-serif, system-ui" font-size="24" fill="#CBD5E1">
    <text x="108" y="456">Build products from scratch. Implement features. Redesign frontends.</text>
    <text x="108" y="496">Harden tests, security, performance, docs, and releases.</text>
  </g>

  <text x="108" y="560" font-family="SFMono-Regular, Menlo, Consolas, monospace" font-size="24" fill="#93C5FD">github.com/SomeMedic/omx-prompts</text>
</svg>
